<?xml version="1.0" encoding="utf-8"?>
<!-- Uploaded to: SVG Repo, www.svgrepo.com, Generator: SVG Repo Mixer Tools -->
<!DOCTYPE svg PUBLIC "-//W3C//DTD SVG 1.1//EN" "http://www.w3.org/Graphics/SVG/1.1/DTD/svg11.dtd">
<svg fill="#000000" width="800px" height="800px" viewBox="0 0 1000 1000" version="1.1" xmlns="http://www.w3.org/2000/svg" xmlns:xlink="http://www.w3.org/1999/xlink"  enable-background="new 0 0 1000 1000" xml:space="preserve">
<metadata> Svg Vector Icons : http://www.onlinewebfonts.com/icon </metadata>
<g>
<g transform="translate(0.000000,511.000000) scale(0.100000,-0.100000)">
<path d="M1413.8,4531.6c-199.3-46.8-422.9-217.5-538.8-410.7C753,3919.6,749,3883,749,2907.1v-884.4l-115.9-50.8c-172.8-73.2-355.8-256.2-449.3-443.2l-75.2-154.5l-6.1-2458C96.3-3771.7,92.3-3672,214.3-3877.4c87.4-150.4,241.9-288.7,410.7-370l154.5-73.2l4096.7-6.1c2994.8-4.1,4129.2,0,4218.7,16.3c359.9,69.1,703.4,406.6,780.7,768.5c32.5,152.5,32.5,5955,0,6107.5c-54.9,254.1-266.3,512.3-520.5,632.3l-138.3,65.1l-2100.2,10.2l-2102.2,10.2l-38.6,48.8c-32.5,38.6-38.6,81.3-38.6,256.2c0,427-164.7,701.4-526.6,880.3l-152.5,75.2l-1382.5,4.1C2109.1,4549.9,1456.5,4541.8,1413.8,4531.6z M4231.7,3921.6c75.2-34.6,95.6-101.7,95.6-309c0-103.7,14.2-235.8,28.5-294.8c59-215.5,217.5-420.9,424.9-540.8c197.2-115.9,134.2-113.9,2346.2-113.9H9164l56.9-48.8l56.9-48.8l6.1-3027.3c4.1-2850.4,2-3029.3-30.5-3094.4c-65.1-126-128.1-154.5-331.4-154.5c-150.5,0-189.1,6.1-237.9,42.7c-126.1,93.5-117.9-65-109.8,2519c8.1,2527.2,8.1,2498.7-93.5,2702c-63,122-223.7,294.8-349.7,376.1c-207.4,132.1,14.2,124-3543.7,124H1358.9v894.6v896.6l50.8,48.8l48.8,50.8h1362.2C3776.3,3944,4197.1,3937.9,4231.7,3921.6z M7899.4,1394.5l56.9-48.8l10.2-2468.2c8.1-1911.1,16.3-2478.4,36.6-2523.1c12.2-32.5,24.4-61,24.4-67.1c0-4.1-1614.3-8.1-3588.4-8.1c-2584.1,0-3600.6,6.1-3635.2,22.4c-28.5,12.2-61,44.7-73.2,73.2c-16.3,34.6-22.4,746.2-22.4,2498.7v2451.9l59,59l59,59h3509.2h3507.1L7899.4,1394.5z"/>
<path d="M1704.5-2582.3v-305h2622.7h2622.7v305v305H4327.2H1704.5V-2582.3z"/>
</g>
</g>
</svg>